# AST/ASF file generated using VICON BodyLanguage
# -----------------------------------------------
:version 1.10
:name VICON
:units
  mass 1.0
  length 0.45
  angle deg
:documentation
   .ast/.asf automatically generated from VICON data using
   VICON BodyBuilder and BodyLanguage model FoxedUp or BRILLIANT.MOD
:root
   order TX TY TZ RX RY RZ
   axis XYZ
   position 0 0 0  
   orientation 0 0 0 
:bonedata
  begin
     id 1 
     name lhipjoint
     direction 0.558404 -0.748506 0.357664 
     length 2.4234 
     axis 0 0 0  XYZ
  end
  begin
     id 2 
     name lfemur
     direction 0.34202 -0.939693 0  
     length 7.14567  
     axis 0 0 20  XYZ
    dof rx ry rz
    limits (-160.0 20.0)
           (-70.0 70.0)
           (-60.0 70.0)
  end
  begin
     id 3 
     name ltibia
     direction 0.34202 -0.939693 0   
     length 8.13956   
     axis 0 0 20   XYZ
    dof rx
    limits (-10.0 170.0)
  end
  begin
     id 4 
     name lfoot
     direction 0.0791314 -0.217412 0.972867   
     length 2.00134   
     axis -90 7.62852e-016 20   XYZ
    dof rx rz
    limits (-45.0 90.0)
           (-70.0 20.0)
  end
  begin
     id 5 
     name ltoes
     direction 1.53547e-011 -4.21922e-011 1   
     length 1.00735   
     axis -90 7.62852e-016 20   XYZ
    dof rx
    limits (-90.0 20.0)
  end
  begin
     id 6 
     name rhipjoint
     direction -0.496392 -0.78327 0.374276   
     length 2.31584  
     axis 0 0 0  XYZ 
  end
  begin
     id 7 
     name rfemur
     direction -0.34202 -0.939693 0   
     length 7.47417   
     axis 0 0 -20   XYZ
    dof rx ry rz
    limits (-160.0 20.0)
           (-70.0 70.0)
           (-70.0 60.0)
  end
  begin
     id 8 
     name rtibia
     direction -0.34202 -0.939693 0   
     length 7.69071   
     axis 0 0 -20   XYZ
    dof rx
    limits (-10.0 170.0)
 end
 begin
     id 9 
     name rfoot
     direction -0.103069 -0.28318 0.953512   
     length 2.16135  
     axis -90 -7.62852e-016 -20   XYZ
    dof rx rz
    limits (-45.0 90.0)
           (-20.0 70.0)
  end
  begin
     id 10 
     name rtoes
     direction -1.53581e-011 -4.21904e-011 1   
     length 1.07867   
     axis -90 -7.62852e-016 -20   XYZ
    dof rx
    limits (-90.0 20.0)
  end
  begin
     id 11 
     name lowerback
     direction -0.0258961 0.994776 -0.0987407   
     length 2.19412   
     axis 0 0 0   XYZ
    dof rx ry rz
    limits (-20.0 45.0)
           (-30.0 30.0)
           (-30.0 30.0)
  end
  begin
     id 12 
     name upperback
     direction 0.0402454 0.999185 0.00320666   
     length 2.18445   
     axis 0 0 0   XYZ
    dof rx ry rz
    limits (-20.0 45.0)
           (-30.0 30.0)
           (-30.0 30.0)
  end
  begin
     id 13 
     name thorax
     direction 0.0519376 0.997415 0.0496558   
     length 2.21487   
     axis 0 0 0   XYZ
    dof rx ry rz
    limits (-20.0 45.0)
           (-30.0 30.0)
           (-30.0 30.0)
  end
  begin
     id 14 
     name lowerneck
     direction -0.0921276 0.983211 0.157506   
     length 1.61201   
     axis 0 0 0   XYZ
    dof rx ry rz
    limits (-20.0 45.0)
           (-30.0 30.0)
           (-30.0 30.0)
  end
  begin
     id 15 
     name upperneck
     direction 0.0820814 0.98162 -0.172292   
     length 1.65275   
     axis 0 0 0   XYZ
    dof rx ry rz
    limits (-20.0 45.0)
           (-30.0 30.0)
           (-30.0 30.0)
  end
  begin
     id 16
     name head
     direction 0.0336554 0.996413 -0.0776455  
     length 1.66415  
     axis 0 0 0   XYZ
    dof rx ry rz
    limits (-20.0 45.0)
           (-30.0 30.0)
           (-30.0 30.0)
  end
  begin
     id 17 
     name lclavicle
     direction 0.94696 0.284418 -0.149576  
     length 3.41447  
     axis 0 0 0   XYZ
    dof ry rz
    limits (-20.0 10.0)
           (0.0 20.0)
  end
  begin
     id 18 
     name lhumerus
     direction 1 -0.000130264 -9.81312e-005   
     length 5.19964   
     axis 180 -30 -90   XYZ
    dof rx ry rz
    limits (-60.0 90.0)
           (-90.0 90.0)
           (-90.0 90.0)
  end
  begin
     id 19
     name lradius
     direction 1 -4.48961e-011 1.43854e-026   
     length 3.32189   
     axis 180 -30 -90   XYZ
    dof rx
    limits (-10.0 170.0)
  end
  begin
     id 20
     name lwrist
     direction 1 -4.48958e-011 3.1502e-026   
     length 1.66095   
     axis -1.97692e-014 90 90   XYZ
    dof ry
    limits (-180.0 0.0)
 end
  begin
     id 21 
     name lhand
     direction 1 -4.48927e-011 6.3004e-026   
     length 0.645616   
     axis -4.02019e-014 90 90   XYZ
    dof rx rz
    limits (-90.0 90.0)
           (-45.0 45.0)
  end
  begin
     id 22 
     name lfingers
     direction 1 -4.4904e-011 1.26008e-025   
     length 0.520512   
     axis -8.04039e-014 90 90   XYZ
    dof rx
    limits (0.0 90.0)
  end
  begin
     id 23
     name lthumb
     direction 0.707107 -6.34947e-011 0.707107   
     length 0.747354   
     axis -90 45 2.85299e-015   XYZ
    dof rx rz
    limits (-45.0 45.0)
           (-45.0 45.0)
  end
  begin
     id 24 
     name rclavicle
     direction -0.909391 0.383475 -0.161107   
     length 3.25176  
     axis 0 0 0   XYZ 
    dof ry rz
    limits (-10.0 20.0)
           (-20.0 0.0)
  end
  begin
     id 25 
     name rhumerus
     direction -1 -4.48965e-011 -1.81384e-027  
     length 5.6595   
     axis 180 30 90   XYZ
    dof rx ry rz
    limits (-90.0 60.0)
           (-90.0 90.0)
           (-90.0 90.0)
  end
  begin
     id 26 
     name rradius
     direction -1 -4.48996e-011 -8.09397e-027   
     length 3.37604   
     axis 180 30 90   XYZ
    dof rx
    limits (-10.0 170.0)
  end
  begin
     id 27 
     name rwrist
     direction -1 -4.48927e-011 -1.56669e-026   
     length 1.68802   
     axis 1.21142e-014 -90 -90   XYZ
    dof ry
    limits (-180.0 0.0)
  end
  begin
     id 28
     name rhand
     direction -1 -4.48912e-011 -3.13339e-026   
     length 0.824702   
     axis 1.99937e-014 -90 -90   XYZ
    dof rx rz
    limits (-90.0 90.0)
           (-45.0 45.0)
  end
  begin
     id 29
     name rfingers
     direction -1 -4.49011e-011 -6.26677e-026   
     length 0.664896   
     axis 3.99874e-014 -90 -90   XYZ
    dof rx
    limits (0.0 90.0)
  end
  begin
     id 30
     name rthumb
     direction -0.707107 -6.34931e-011 0.707107   
     length 0.954662   
     axis -90 -45 -2.85299e-015   XYZ
    dof rx rz
    limits (-45.0 45.0)
           (-45.0 45.0)
  end
:hierarchy
  begin
    root lhipjoint rhipjoint lowerback
    lhipjoint lfemur
    lfemur ltibia
    ltibia lfoot
    lfoot ltoes
    rhipjoint rfemur
    rfemur rtibia
    rtibia rfoot
    rfoot rtoes
    lowerback upperback
    upperback thorax
    thorax lowerneck lclavicle rclavicle
    lowerneck upperneck
    upperneck head
    lclavicle lhumerus
    lhumerus lradius
    lradius lwrist
    lwrist lhand lthumb
    lhand lfingers
    rclavicle rhumerus
    rhumerus rradius
    rradius rwrist
    rwrist rhand rthumb
    rhand rfingers
  end

#!OML:ASF F:\VICON\USERDATA\INSTALL\rory3\rory3.ASF
:FULLY-SPECIFIED
:DEGREES
172
root 11.1207 17.6613 -31.2229 14.4707 -30.9563 -0.782166
lowerback 9.89763 0.729357 -5.49358
upperback -0.696195 0.528448 3.46654
thorax -6.39766 0.511362 6.72062
lowerneck -12.7759 -3.30621 -12.3409
upperneck 21.4858 -4.63719 11.5877
head 9.4081 -2.00367 5.57906
rclavicle 2.76311e-014 -3.49861e-014
rhumerus -32.1363 -12.9132 -71.9879
rradius 41.0259
rwrist -17.4402
rhand -13.5304 18.3071
rfingers 7.12502
rthumb 12.5819 -11.294
lclavicle 2.76311e-014 -3.49861e-014
lhumerus -28.4931 21.7014 81.0592
lradius 23.0704
lwrist -11.8296
lhand -6.16645 30.8099
lfingers 7.12502
lthumb 19.6723 59.8345
rfemur -15.1634 4.95513 12.7402
rtibia 55.3189
rfoot 0.599316 -1.81917
rtoes 17.4288
lfemur -32.358 -9.32297 -17.1752
ltibia 46.6612
lfoot -21.7599 -1.82606
ltoes 10.0922
173
root 11.1085 17.6764 -31.0687 14.2062 -31.625 -0.629754
lowerback 9.83088 0.751453 -5.67994
upperback -0.38664 0.53584 3.42346
thorax -6.03256 0.497256 6.77585
lowerneck -13.3513 -3.20676 -12.6614
upperneck 21.8331 -4.43124 11.7928
head 9.62229 -1.89969 5.74939
rclavicle -4.13472e-014 3.26007e-014
rhumerus -31.7514 -12.4825 -72.2195
rradius 41.3421
rwrist -17.2926
rhand -13.5536 18.3901
rfingers 7.12502
rthumb 12.5595 -11.2124
lclavicle -4.13472e-014 3.26007e-014
lhumerus -28.0623 21.9711 81.0503
lradius 23.2538
lwrist -11.8638
lhand -6.2453 30.7319
lfingers 7.12502
lthumb 19.5965 59.7642
rfemur -15.7973 5.02261 12.2282
rtibia 56.7884
rfoot 0.581898 -2.27122
rtoes 17.4477
lfemur -31.2482 -9.59506 -17.8714
ltibia 46.3841
lfoot -22.3478 -0.38691
ltoes 5.42308
174
root 11.0993 17.6715 -30.944 14.3359 -31.819 -0.535497
lowerback 9.62956 0.666978 -5.95029
upperback -0.270155 0.40679 3.51519
thorax -5.77777 0.430085 7.04767
lowerneck -13.6114 -3.15117 -12.6826
upperneck 21.8583 -4.29011 11.6826
head 9.65932 -1.83957 5.7317
rclavicle -3.1408e-014 2.70347e-014
rhumerus -31.5569 -11.9557 -72.2729
rradius 41.719
rwrist -17.3897
rhand -13.3802 18.7244
rfingers 7.12502
rthumb 12.7267 -10.8678
lclavicle -3.1408e-014 2.70347e-014
lhumerus -27.4153 21.9719 81.222
lradius 23.3369
lwrist -11.4305
lhand -6.4557 30.8565
lfingers 7.12502
lthumb 19.3942 59.9093
rfemur -16.8744 4.76005 11.9683
rtibia 58.3503
rfoot -0.816444 -3.14735
rtoes 15.7483
lfemur -30.8364 -9.02275 -18.4081
ltibia 46.2033
lfoot -22.2313 0.0251289
ltoes -4.00457
175
root 11.0888 17.6695 -30.8266 14.4413 -31.8549 -0.451197
lowerback 9.61795 0.641634 -5.96714
upperback -0.158265 0.366234 3.41539
thorax -5.64445 0.400084 6.95337
lowerneck -14.2083 -3.29238 -12.4155
upperneck 22.0248 -4.45979 11.5397
head 9.84797 -1.89444 5.61782
rclavicle 6.14245e-014 3.97569e-015
rhumerus -31.5501 -11.7178 -72.5556
rradius 42.4145
rwrist -17.8928
rhand -13.3455 18.5258
rfingers 7.12502
rthumb 12.7602 -11.0643
lclavicle 6.14245e-014 3.97569e-015
lhumerus -26.5997 21.6492 81.2769
lradius 23.3239
lwrist -11.3936
lhand -6.44231 30.9769
lfingers 7.12502
lthumb 19.4071 60.0284
rfemur -17.8984 4.45384 11.8507
rtibia 59.8033
rfoot -2.414 -3.37306
rtoes 13.3584
lfemur -30.5111 -8.55718 -18.8044
ltibia 46.0047
lfoot -22.0577 2.10085
ltoes -19.1618
176
root 11.0739 17.6705 -30.7059 14.3682 -32.0804 -0.171468
lowerback 9.66207 0.709297 -6.13186
upperback 0.00901943 0.421945 3.15121
thorax -5.49966 0.417332 6.75313
lowerneck -12.9053 -3.54475 -13.4924
upperneck 21.0599 -4.93177 12.7442
head 9.38496 -2.11243 6.15354
rclavicle -4.92986e-014 -1.63003e-014
rhumerus -31.4189 -11.9718 -72.918
rradius 42.8363
rwrist -17.9307
rhand -13.3152 18.4055
rfingers 7.12502
rthumb 12.7893 -11.1828
lclavicle -4.92986e-014 -1.63003e-014
lhumerus -26.0267 21.173 81.1998
lradius 23.5495
lwrist -11.6074
lhand -5.90055 31.5272
lfingers 7.12502
lthumb 19.928 60.5255
rfemur -18.8407 4.27452 11.5315
rtibia 61.2342
rfoot -1.73621 -4.99247
rtoes 13.9789
lfemur -30.0907 -8.21097 -19.4375
ltibia 45.8607
lfoot -21.9524 2.63724
ltoes -25.3894
177
root 11.0587 17.6785 -30.5897 14.4549 -32.1971 0.0675709
lowerback 9.69248 0.59454 -6.54438
upperback 0.0457148 0.221345 3.15606
thorax -5.44799 0.326472 7.02616
lowerneck -15.6874 -3.12661 -11.4892
upperneck 23.0386 -4.25455 11.0527
head 10.4355 -1.74003 5.34482
rclavicle 6.38099e-014 -1.35174e-014
rhumerus -31.1366 -11.6415 -73.1342
rradius 42.9513
rwrist -17.6238
rhand -13.2398 18.4908
rfingers 7.12502
rthumb 12.8621 -11.0929
lclavicle 6.38099e-014 -1.35174e-014
lhumerus -26.0384 21.1925 81.1374
lradius 24.0982
lwrist -11.3545
lhand -5.39464 32.2227
lfingers 7.12502
lthumb 20.4142 61.1696
rfemur -19.8697 3.94913 11.3085
rtibia 62.519
rfoot -2.8473 -5.68569
rtoes 13.0091
lfemur -29.8901 -8.24882 -19.7794
ltibia 45.7431
lfoot -21.8781 0.865145
ltoes -16.0678
178
root 11.0428 17.69 -30.4838 14.7304 -31.9859 0.26175
lowerback 9.77603 0.367459 -6.96469
upperback -0.0651252 -0.126892 3.30662
thorax -5.55414 0.176849 7.48675
lowerneck -17.3478 -2.77237 -10.6063
upperneck 24.2131 -3.63703 10.0316
head 11.0726 -1.46219 4.94682
rclavicle -4.85035e-014 2.18663e-014
rhumerus -30.9493 -11.1393 -73.2271
rradius 43.1061
rwrist -17.5203
rhand -12.955 18.6681
rfingers 7.12502
rthumb 13.1366 -10.8981
lclavicle -4.85035e-014 2.18663e-014
lhumerus -25.6007 21.2548 81.2349
lradius 24.1484
lwrist -10.8188
lhand -5.57144 32.2587
lfingers 7.12502
lthumb 20.2443 61.2238
rfemur -21.0636 3.26866 11.28
rtibia 63.6688
rfoot -2.9233 -7.12417
rtoes 17.8052
lfemur -29.876 -8.29743 -20.0214
ltibia 45.5989
lfoot -21.6315 -1.26712
ltoes 0.689227
179
root 11.024 17.7026 -30.3731 14.9767 -31.9162 0.478871
lowerback 9.71654 0.306318 -7.09378
upperback -0.22296 -0.22533 3.21932
thorax -5.67098 0.141743 7.48237
lowerneck -16.8014 -2.84893 -10.8925
upperneck 24.0465 -3.76579 10.2362
head 10.9289 -1.53583 5.04599
rclavicle 6.55989e-015 3.02153e-014
rhumerus -31.1634 -11.3866 -73.2536
rradius 43.3361
rwrist -17.3228
rhand -12.6392 18.8724
rfingers 7.12502
rthumb 13.4409 -10.6739
lclavicle 6.55989e-015 3.02153e-014
lhumerus -24.9559 20.9377 81.2447
lradius 23.9076
lwrist -10.5449
lhand -6.07313 31.9685
lfingers 7.12502
lthumb 19.7621 60.9839
rfemur -22.252 2.63677 11.1757
rtibia 64.6435
rfoot -4.86552 -7.41012
rtoes 16.6522
lfemur -29.7125 -8.25275 -20.4543
ltibia 45.4498
lfoot -21.9487 0.831965
ltoes -18.5469
180
root 11.0049 17.7152 -30.2306 14.9385 -32.464 0.353375
lowerback 9.62272 0.386095 -6.91208
upperback -0.000696729 -0.100094 3.03609
thorax -5.40334 0.175776 7.15445
lowerneck -16.3456 -2.84677 -11.0527
upperneck 23.7584 -3.82533 10.5293
head 10.749 -1.55332 5.16254
rclavicle -7.17613e-014 3.97569e-016
rhumerus -31.0636 -11.6654 -73.5594
rradius 43.4215
rwrist -16.7256
rhand -12.5026 19.3088
rfingers 7.12502
rthumb 13.5726 -10.2288
lclavicle -7.17613e-014 3.97569e-016
lhumerus -24.6552 21.0743 80.9947
lradius 24.2331
lwrist -10.5635
lhand -6.27376 31.9034
lfingers 7.12502
lthumb 19.5692 60.9385
rfemur -22.9769 2.64502 11.1407
rtibia 65.4941
rfoot -5.31592 -8.51352
rtoes 17.763
lfemur -28.844 -8.24423 -20.8456
ltibia 45.2279
lfoot -21.957 2.28254
ltoes -25.0193
181
root 10.9795 17.7714 -30.1197 15.3648 -32.2423 0.439397
lowerback 9.77743 0.296736 -7.19067
upperback -0.190903 -0.260588 3.07858
thorax -5.66495 0.123612 7.39113
lowerneck -13.8266 -3.154 -12.4884
upperneck 21.5884 -4.36534 11.9732
head 9.61745 -1.82121 5.78541
rclavicle -4.39314e-014 1.23246e-014
rhumerus -31.1272 -11.6992 -73.6194
rradius 43.4654
rwrist -16.1725
rhand -12.5389 19.4526
rfingers 7.12502
rthumb 13.5376 -10.0873
lclavicle -4.39314e-014 1.23246e-014
lhumerus -24.5534 21.1345 80.9314
lradius 24.6599
lwrist -10.8221
lhand -5.92944 32.1225
lfingers 7.12502
lthumb 19.9002 61.1237
rfemur -24.218 2.14081 11.3452
rtibia 66.1629
rfoot -5.19587 -10.0193
rtoes 18.6445
lfemur -29.5717 -9.18049 -20.4129
ltibia 45.0415
lfoot -21.092 -2.29514
ltoes 9.37549
182
root 10.9625 17.7298 -30.0001 15.1541 -32.6881 0.387657
lowerback 10.2039 0.553349 -7.27374
upperback -0.160066 0.0403986 3.02789
thorax -5.92833 0.284762 7.34735
lowerneck -14.4476 -3.16622 -11.7874
upperneck 22.1799 -4.39148 11.3946
head 9.92006 -1.82125 5.46935
rclavicle -5.26779e-014 2.0276e-014
rhumerus -31.7597 -10.9697 -73.7561
rradius 44.4426
rwrist -17.0011
rhand -13.1308 18.5082
rfingers 7.12502
rthumb 12.9671 -11.0689
lclavicle -5.26779e-014 2.0276e-014
lhumerus -24.2276 20.7498 81.0454
lradius 24.7891
lwrist -11.1222
lhand -5.87655 32.0141
lfingers 7.12502
lthumb 19.951 61.01
rfemur -24.9955 2.18213 11.3642
rtibia 66.9946
rfoot -4.76419 -11.1124
rtoes 20.8512
lfemur -28.2228 -7.81492 -21.2381
ltibia 44.8142
lfoot -21.6075 0.630546
ltoes -19.4447
183
root 10.9436 17.7526 -29.8964 15.6773 -32.2938 0.409158
lowerback 9.54883 0.318237 -6.76831
upperback 0.101339 -0.188113 2.6602
thorax -5.23796 0.112735 6.67423
lowerneck -14.1596 -3.28029 -11.5499
upperneck 21.3711 -4.67418 11.8043
head 9.62199 -1.89329 5.51177
rclavicle -2.33572e-014 2.26615e-014
rhumerus -30.8868 -12.4647 -74.3678
rradius 43.7536
rwrist -16.0742
rhand -12.915 19.0127
rfingers 7.12502
rthumb 13.1751 -10.551
lclavicle -2.33572e-014 2.26615e-014
lhumerus -22.8931 20.1865 80.8373
lradius 24.7631
lwrist -10.8753
lhand -7.28399 30.8431
lfingers 7.12502
lthumb 18.5977 59.9741
rfemur -26.3554 1.44102 11.6626
rtibia 67.5639
rfoot -5.30143 -11.8238
rtoes 20.1744
lfemur -28.5731 -8.14494 -21.126
ltibia 44.6828
lfoot -21.0021 -1.33556
ltoes 2.1412
